<svg version="1.1" id="Layer_1" x="0px" y="0px" viewBox="0 0 327 81" enable-background="new 0 0 110 20" xmlns="http://www.w3.org/2000/svg">
  <defs></defs>
  <g transform="matrix(1, 0, 0, 1, -131.664124, -302.29007)">
    <g style="" transform="matrix(1, 0, 0, 1, 2.687023, -0.671756)">
      <path fill="#FFFFFF00" d="M10,10 c0-17.7,0-35.4,0-53c0-1.3,0.3-1.6,1.6-1.6c105.6,0,211.2,0,316.9,0c1.3,0,1.6,0.3,1.6,1.6
				c-0.1,23.8-0.1,47.6,0,71.4c0,1.5-0.3,1.8-1.8,1.8c-69.2,0-138.4,0-207.7,0c0.1-1.2,1-1.3,1.9-1.2c1.4,0.2,2.8-0.2,4.1-0.6
				c8.8-0.9,17.6-1.4,26.5-2c7.4-0.5,14.8-1,22.2-2c1.7-0.2,3.4-0.2,5.1-0.2c4,0.4,7.9-0.5,11.9-0.6c1,0,2.1-0.2,2.9-0.9
				c2.4-0.9,4.9-0.6,7.4-1c4.7-0.7,9.4-1,14.1-1.5c5-0.4,10.1-0.6,15.1-1.3c0.2-0.1,0.4-0.2,0.7-0.3c2.4-0.4,4.8,0,7.2-0.3
				c0.2-0.1,0.5-0.1,0.7-0.2c1-0.2,2.1,0,3-0.7c0.4-0.2,0.8-0.4,1.2-0.5c6.6-0.8,13.1-2.4,19.7-2.6c4.7,0.1,9.3-0.7,13.9-1.5
				c3.3-1.2,6.7-2.1,10.2-2.3c2.2,0.6,4.3-0.1,6.3-0.5c1.4-0.3,3,0,4.2-1.1c0.5-0.3,1-0.5,1.5-0.6c1.4-0.2,3,0.3,4.2-0.9
				c0.2-0.1,0.4-0.2,0.6-0.3c0.7-0.2,1.5-0.3,2.1-0.7c4.5-1.1,9-2.4,13.5-3.7c1.2-0.1,2.5,0.3,3.3-1c2.7-1.7,4.3-3.7,4.2-7.2
				c-0.1-3.7-2-6.1-4.7-8.1c-1.1-0.8-2.3-1.3-3.5-2c-0.7-0.6-1.7-0.5-2.5-1c-0.4-0.2-0.9-0.4-1.3-0.3c-0.8,0.2-1.6,0.3-2.1-0.7
				c-0.3-0.6-0.8-0.8-1.4-0.8c-0.5,0-1,0.1-1.5,0.1c-0.2,0-0.4,0-0.6-0.1c-1.4-1-2.9-1.1-4.4-0.6c-0.7,0.1-1.3,0.1-1.9-0.2
				c-1.2-1.7-3.1-0.9-4.7-1.2c-1-0.2-1.9-0.1-2.5-1c-0.6-1-1.5-1.2-2.6-1c-1.1,0.3-2.1,0.4-3.2,0.4c-1.5,0-2.9,0-4.4,0
				c-0.7,0-1.5,0-2.2,0c-0.2,0-0.5,0-0.7,0c-2.3-0.3-4.6-0.6-6.9-0.2c-3.3-0.6-6.6-0.9-9.9-0.6c-0.8,0.1-1.6,0.1-2.4-0.3
				c-1.4-1.1-3.1-0.5-4.7-0.7c-3.9-0.8-7.9-0.2-11.8,0c-1.9-0.4-3.9-0.3-5.9-0.3c-0.8-0.1-1.6,0-2.4,0.2c-2.3,0.1-4.5-0.5-6.7-0.3
				c-0.9,0.1-1.9,0-2.8,0.5c-0.2,0.1-0.4,0.1-0.7,0.1c-1-0.5-1.9-0.5-2.7,0.4c-1.6,0.5-3.2,0.5-4.9,0.5c-4.8,0.1-9.5,0-14.3,0.6
				c-5.8,0.8-11.6,1.5-17.5,2.4c-0.7,0.1-1.6,0.2-1.8,1.1c-0.3,0.8,0.4,1.4,0.9,1.9c0.8,1,1.9,1.4,3.2,1.2c5.8-1,11.6-0.3,17.4-1
				c1.5-0.2,3,0,4.4,0.6c4.1-0.2,8.3,0.1,12.4-0.5c1.3-0.2,2.5-0.2,3.8-0.2c5.9-0.1,11.7,0,17.6-0.4c7-0.4,14.1,0.4,21.2,0.4
				c1.9,0,3.7,0.6,5.4,1.3c2.1,1.1,4.4,0.3,6.6,0.9c1.6,0.5,3.2,0.5,4.9,1.2c1.2,0.5,2.9-0.3,4.5-0.1c0.2,0,0.5,0.1,0.7,0.1
				c3.1,0.5,6.2,1.2,9.4,1.5c1,0.1,2.1,0.2,3.1,0c1.9-0.4,3.5-0.4,5.4,0.9c1.4,1,3.6,1,5.5,1.4c1,0.3,2,0.4,3,0.9
				c1.2,0.7,1.9,1.5,1.1,2.9c-2.9,2.2-6.3,3.1-9.8,4.1c-3.1,0.3-6,1.4-9.1,1.9c-2.9,0.5-5.7,1.4-8.5,2.1c-1.9,0.4-3.7,0.5-5.6,0.5
				c-0.8,0-1.7,0.2-2.4,0.9c-0.6,0.5-1.4,0.4-2,0.7c-0.9,0.1-1.7,0.1-2.6,0.4c-1.1,0.3-2.3,0-3.4,0.4c-5.3,0.7-10.6,2-16,2.1
				c-1.2,0-2.1,0.7-3.2,1c-1.4,0.2-2.7,0.3-4-0.4c-0.3-0.2-0.6-0.6-1-0.4c-3,1.7-6.2,0.5-9.3,0.3c-1.6-0.1-2.9,1.2-4.5,0.8
				c-2.2,0-4.2,1.1-6.5,0.9c-1.1,0-2.2,0-3.2,0c-2.7,1-5.6,0.3-8.3,1.3c-0.9,0.3-1.8,0.5-2.7,0.9c-1.5,1-3.1,1.4-4.9,1.1
				c-0.9-0.6-1.9-0.5-2.9-0.3c-1.4-0.6-2.7,0.6-4.1,0.2c-2,0.7-4.2,0.3-6.2,1c-0.3,0.1-0.6,0.1-0.9,0.2c-0.4,0-0.9,0-1.3,0
				c-0.6,0-1.3,0-1.9,0c-0.6,0-1.1,0.2-1.6,0.5c-0.3,0.1-0.6,0.2-0.9,0.2c-0.7-0.1-1.4,0-2,0.1c-1.2-0.1-2.5,0-3.7-0.5
				c-0.3-0.2-0.7-0.4-1.1-0.2c-2.7,1.2-5.4,1.1-8.3,0.9c-1.5-0.1-3.2,0.2-4.7,1c-1.2-0.2-2,0.7-3.1,0.9c-0.2,0-0.4,0-0.6,0
				c-4.5-0.6-9,0.2-13.5,0.2c-0.4,0-0.7,0.2-1,0.5c-0.3,0.3-0.7,0.5-1,0.6c-0.7,0-1.3,0.1-2-0.2c-0.5-0.3-1-0.1-1.5,0.2
				c-0.2,0.1-0.4,0.2-0.5,0.2c-1.3,0.2-2.6,0.5-3.9,0.4c-0.8-0.2-1.6-0.4-2.5-0.1c-0.2,0.1-0.3,0.2-0.5,0.3c-0.8,0.9-1.8,0-2.7,0.3
				c-0.7,0.1-1.3,0.5-1.9,0.7c-0.6,0.1-1-0.3-1.4-0.6c-5.5-0.4-11-0.8-16.4,0.2c-0.8,0.3-1.6-0.1-2.4-0.1c-9.4-0.3-18.9,0.1-28.3,0
				c-9.5-0.1-19-0.8-28.5-0.9c-0.5,0-0.9-0.1-1.4-0.2c-1.2-0.4-2.7-0.2-3.6-1.4c-0.1-0.2-0.4-0.3-0.6-0.2c-4.2,1.5-8.3-1.2-12.6-0.2
				c-1.6,0.4-3.4-0.3-4.8-1.5c-1-0.9-2-1-3.3-0.8c-2.3,0.4-4.5-0.4-6.4-1.5c-0.9-0.5-1.6-0.7-2.6-0.6c-0.6,0-1.1-0.2-1.7-0.5
				c-3.8-1.8-4.3-3.6-1.9-7c0.8-1.1,1.5-2.2,2.7-2.8c0.9-0.3,1.5-1,2.4-1.3c0.9-0.1,1.6-0.6,2.1-1.3c0.3-0.3,0.6-0.5,1-0.6
				c1.5-0.4,2.8-1,3.9-2.2c1.1-1,2.5-1.6,3.9-2.2c1.9,0.2,3.3-1.2,5-1.6c0.2-0.1,0.4-0.1,0.6-0.2c1.2-0.1,2.1-0.7,2.8-1.5
				c4.3-2.1,8.7-4,13.5-4.8c0.8-0.2,1.7-0.1,2.5-0.5c1.6-0.4,3-2,5-1c0.2,0.1,1-1.3,1.8-1.7c5.1-1.9,10.3-3.6,15.7-4.1
				c2,0.2,3.8-0.4,5.7-0.9c1.5-0.4,3-0.7,4.5-0.9c0.2-0.1,0.4-0.2,0.6-0.2c2.4-0.6,4.8-1.1,7.2-1.7c0.2-0.1,0.4-0.1,0.7-0.2
				c2.9-0.7,6.1-0.3,8.9-1.6c1.3-0.7,2.8-0.5,4.2-0.7c3.9,0.2,7.6-1.2,11.4-1.7c7.3-1.2,14.6-2.7,22-2.4c6.1-0.6,12.3,0.1,18.3-1.2
				c2.5-0.5,5.2,0.3,7.7-0.5c2.3-0.2,4.6-0.5,6.9-0.5c10.1-0.4,20.1-0.6,30.2-0.5c0.1,0,0.3,0,0.4,0c3,0,3.6-0.4,3.7-2
				c0.1-3.1-0.9-4.7-3.4-5.1c-4.8-0.7-9.7-0.6-14.5-0.3c-6.7,0.5-13.4,0.7-20.1,1.1c-5.8,0.4-11.6,0.8-17.4,1.2
				c-4.5,0.3-9.1,0.7-13.6,0.6c-4.9,0-9.7,0.1-14.4,1.4c-0.6,0.2-1.1,0.2-1.7,0.3c-3.3-0.1-6.6,0.5-9.9,0.8c-1,0.1-2,0.2-3-0.3
				c-1.7-0.8,0,1-0.7,0.9c-0.8,0.9-1.9,0.7-3,0.8c-3.4,0-6.7,0.9-10.2,0.8c-0.8,0-1.2,0.8-2,1c-0.2,0.1-0.4,0.2-0.7,0.2
				c-2.2,0.2-4.5,0.1-6.6,1.1c-0.2,0.1-0.4,0.1-0.6,0.2c-2.7-1.3-4.6,1.6-7.1,1.4c-0.3,0-0.7,0.2-1,0.3c-0.6,0.2-1.2,0.3-1.8,0.5
				c-0.2,0.1-0.4,0.1-0.6,0.2c-2.2,0.4-4.5,0.6-6.5,1.9c-2.6,1.1-5.3,1.8-8.1,2.3c-2.1,0.1-4,0.6-5.8,1.7c-4.6,1.9-9.4,3.3-14.2,4.5
				c-1.2,0.1-2.4,0.4-3.3,1.3c-2.4,1.6-5.3,1.8-7.9,3c-2.8,1.3-5.4,2.8-8.4,3.4c-1,0-1.8,0.4-2.4,1.1c-0.9,0.7-1.9,1.4-3,1.9
				c-4.8,2.1-8.7,5.2-12,9.2c-1,0.8-1.4,1.9-1.8,3.1c-0.1,0.2-0.2,0.4-0.3,0.5c-0.6,1.1-0.2,2.3-0.5,3.5
				C134.3,358.1,134.6,359.1,133.4,359z"></path>
      <path fill="#FFFFFF00" d="M205.5,379.2c-23.4,0-46.7,0-70.1,0.1c-1.8,0-2-0.5-2-2.1c0.1-5.9,0-11.8,0-17.6c0.6,0,0.6-1.2,1.3-0.8
				c0.6,0.3,0.5,1,0.3,1.6c-0.3,0.8,0.1,1.3,0.7,1.9c1.1,1,2.1,2.1,3,3.2c0.5,0.6,1.1,1.1,2,1.2c3.3,2,7.1,3.2,10.5,5
				c2.2,1.2,4.6,1.5,7,1.7c5.1,0.7,10.1,2,15.2,2.5c2.7,0.3,5.3,0.2,8,0.4c5.9,0.4,11.8,1.1,17.8,1c1.7,0,3.4,0.1,5.1,0.2
				c0.7,0,1.3,0.2,1.4,1.1C205.8,378.8,205.7,379,205.5,379.2z"></path>
      <path fill="#FCF5F2" d="M232.4,379.2c-6.9,0-13.7,0-20.6,0c0.4-1.5,1.9-1.1,2.9-1.5c5.5-0.1,11.1-0.1,16.6,0
				C231.9,378,232.5,378.3,232.4,379.2z"></path>
      <path fill="#FBF3EF" d="M140.8,367c-1.2,0.3-1.7-0.6-2.4-1.3c-1.2-1.2-2.2-2.7-3.7-3.6c-1.2-0.8,0.6-1.9-0.1-3
				c-0.3,0.1-0.5,1-1.1,0.4c0-0.1,0-0.3,0-0.4c0.9-1.3,0.4-2.8,0.6-4.2c0.1-0.6-0.2-1.2,0.8-1.1c0.7,0.8,0.4,1.8,0.5,2.8
				c0.2,3,1.1,5.8,3.5,7.9C139.6,365.2,140.7,365.8,140.8,367z"></path>
      <path fill="#F7E9E2" d="M249.4,377.9c-0.9,0.9-2,0.9-3,0.6c-1-0.2-1.7,0-2.3,0.7c-3,0-6,0-9,0c0.1-1.2,1.1-0.9,1.8-1
				c1-0.1,2,0.1,3-0.4C243,377.5,246.2,376.6,249.4,377.9z"></path>
      <path fill="#F4E2DA" d="M240,378.3c-1.5,1.2-3.4-0.3-4.9,0.9c-0.9,0-1.8,0-2.7,0c-0.3-0.3-0.6-0.6-0.9-0.9
				C234.3,377.5,237.1,377.2,240,378.3z"></path>
      <path fill="#F7E8E1" d="M205.5,379.2c0-0.2,0-0.4,0.1-0.6c0.3-0.5,0.8-0.7,1.3-0.7c0.7,0,1.3,0.2,1.8,0.7c0.1,0.2,0.1,0.4,0,0.6
				C207.6,379.2,206.5,379.2,205.5,379.2z"></path>
      <path fill="#EFD2C6" d="M214.5,378.3c-0.9,0.5-2,0.3-2.7,0.9c-0.3,0-0.6,0-0.9,0c-0.1-0.2-0.1-0.5,0-0.7
				C212.1,377.7,213.2,376.7,214.5,378.3z"></path>
      <path fill="#FCF4F0" d="M210.9,378.7c0,0.2,0,0.3,0,0.5c-0.7,0-1.5,0-2.2,0c0-0.1,0-0.2,0-0.4c0.5-0.7,1.2-0.6,2-0.4
				C210.7,378.5,210.8,378.6,210.9,378.7z"></path>
      <path fill="#BF2226" d="M214.5,378.3c-1.3-0.5-2.4,0-3.6,0.4l0,0c-1.4-0.1-2.8-0.5-4.2-0.5c-0.5-0.2-0.8,0.2-1.2,0.4
				c-1.9-1.1-4.1-0.7-6.1-0.7c-6.1,0-12.2-0.5-18.3-0.9c-4.1-0.3-8.3-0.3-12.4-1.1c-3.5-0.7-7.1-1.4-10.6-2.1
				c-2.5-0.3-4.9-0.9-7.2-1.8c-3.4-1.6-7-2.7-10.2-4.9c-4.4-3.3-6.6-7.7-5.9-13.3c0,0,0,0,0,0c0.4-1.3,0.9-2.6,1.8-3.6
				c2.8-3.7,6.2-6.6,10.4-8.6c1.6-0.8,3.2-1.8,4.7-2.7c0.8-0.4,1.5-1,2.4-1.2c3.7-0.7,6.8-3,10.4-4.1c2-0.6,4.1-1.2,6-2.2
				c1-0.7,2.2-0.9,3.3-1.2c4.7-1.5,9.4-3.1,14.2-4.6c1.9-0.8,3.9-1.2,5.9-1.7c2.7-0.7,5.3-1.4,8-2.2c2.3-1.1,4.7-1.4,7.2-1.9l0,0
				c0.7-0.6,1.7,0,2.3-0.7c2.7-0.4,5.2-1.6,8-1.6l0,0c2.3-1,4.8-1.1,7.2-1.3l0,0c4-1.7,8.5-1.3,12.6-2.3c1,0.1,2.1,0.1,3-0.5
				c3.5-0.6,7-1.1,10.5-1.4c1-0.1,2.1-0.1,3.1-0.4c0.6,0,1.1,0,1.7-0.1c4.1-1.1,8.3-0.9,12.5-1.5c0.7-0.1,1.3,0.1,2-0.2
				c6.7-0.4,13.3-0.9,20-1.3c3.3-0.2,6.7-0.4,10-0.6c7.8-0.5,15.6-1,23.4-1.2c4.5-0.1,9.1-0.1,13.6,0.3c0.6,0.1,1.1,0.3,1.5,0.8
				c1.6,1.8,1.3,4,1.6,6.1c0.1,0.7-0.8,1.4-1.7,1.5c-1.1,0.1-2.2,0.1-3.3,0.1c-7.4-0.1-14.9,0.1-22.3,0.4c-4.9,0.2-9.8,0.1-14.6,0.5
				c-0.5,0.4-1,0.3-1.5,0.2c-6.3-0.3-12.4,1-18.7,1c-2.1,0-4.3,0.1-6.4,0.5c-7.3,0-14.5,1.4-21.8,2.3c-3.9,0.5-7.8,1.3-11.7,1.7
				c-1.2,0.2-2.3,0.3-3.5,0.5c-3.1,1.1-6.5,0.6-9.6,1.7l-0.1,0l-0.1,0.1c-2.6,0.5-5.1,1.1-7.7,1.7l0,0c-3.5,0.5-6.8,1.9-10.4,2.3
				c-4.2,0.4-8.2,1.8-12.2,2.9c-1.3,0.3-2.5,0.8-3.8,1.2c-1.9,1.3-4.3,1-6.2,2.3c-0.9,0.4-2,0.4-2.9,0.7c-3.8,0.7-7.1,2.7-10.8,3.5
				c-1,0.2-1.8,0.7-2.5,1.4c-1.1,0.4-2,1.1-3.2,1.3l0,0c-1.9,0.2-3.3,2-5.4,1.9c-1.2,0.8-2.6,1.2-3.5,2.2c-1.3,0.6-2.5,1.5-3.9,1.9
				c-1.3,0.1-2,1.4-3.1,1.8c-1,0.3-1.7,1-2.3,1.7c-2.2,1.1-3.2,3.2-4.3,5.1c-0.4,0.6-0.2,1.2,0.4,1.6c1.4,0.9,2.5,2.4,4.3,2.7
				c1.9,0.2,3.3,1.5,5.1,1.8c5.5,0.8,10.8,3.2,16.5,3.2c0.3,0,0.6,0.1,0.8,0.2c3,0.8,6.1,0.8,9.2,0.9c1.6,0.1,3.1,1,4.8,0.6
				c1,0.5,2.1,0.6,3.2,0.7c0.9,0,2,0.4,2.7-0.6c4.9-0.1,9.7,0.3,14.6,0.5c4.5,0.2,9,0,13.5,0.4c1.2,0.1,2.4-0.5,3.5,0
				c1.6,0.9,3.2,1.5,5.1,0.4c1.2-0.7,2.7-0.1,4.1,0.1c0.4,0.2,0.9,0.8,0.9-0.3c0.5-0.4,1-0.8,1.7-0.4c1.6,0.8,3.5,0.3,5,1.4
				c0.1-0.4,0.2-0.8,0.6-1.1c0.2-0.2,0.5-0.4,0.8-0.4c0.4,0,0.8,0.3,1.1,0.5c0.9,0.8,1.7-0.4,2.6,0c0.6,0.6,1.3,0.4,2,0.5
				c1.5-1.3,3.5-0.6,5.2-1.1c1-0.7,2-0.1,3,0.1c0.4,0.5,0.9,0.8,1.7,0.7c1.5-0.3,3-0.2,4.4,0.2c0.9-0.4,1.8,0.1,2.7-0.3
				c0.3-0.1,0.6-0.2,0.8-0.1c0.8,0,1.2-0.2,1.2-1.1l0,0c0.5-0.4,1-0.2,1.5-0.2c0.8,0.2,1.4,1.2,2.4,0.9c1.1-0.2,2.3-0.3,3.3-1l0-0.1
				l-0.1-0.1c0.2-0.2,0.5-0.3,0.9-0.3c1.2,0.7,2.4,0.8,3.8,0.8c1.8-0.1,3.6-0.6,5.3-1.1c0.2-0.1,0.4-0.1,0.6-0.2
				c1-0.3,1.9,0.5,2.9,0.4c0.8-0.1,1.5-0.1,2.1-0.6c0.2-0.1,0.4-0.2,0.5-0.2c0.8-0.2,1.7,0.2,2.5-0.1c0.2-0.1,0.4-0.1,0.5-0.1
				c0.2,0.1,0.3,0.1,0.5,0.2c1.4-0.3,2.8-0.4,4.1-0.8c0.9-0.1,1.9,0.1,2.7-0.6c0.4-0.4,1-0.8,1.6-0.4c1.4,0.9,2.9,0.3,4.3,0.2
				c2,0.3,4,0.1,6-0.4c1.4,0.5,2.8,0.3,4.1-0.2c0.3,0,0.6-0.1,0.9-0.1c1.8,0.3,3.6-0.7,5.4-0.3c0.8,0,1.5-0.2,2.3-0.4
				c1.5,0.1,2.9-0.5,4.2-1.2c0.6,0.6,1.2,0.9,1.9,0.3c0.7-0.5,1.6-0.4,2.4-0.3c0.6,0.2,1.3,0,2,0.2c2.3,0.9,4.4-0.2,6.5-0.7
				c3.4-0.8,6.8-0.6,10.2-0.9c2.8-0.3,5.6-0.7,8.4-1.5c2.3-0.6,4.7-0.2,7-0.5c3.9-0.5,7.8-0.4,11.7-0.6c0.4,0,0.9,0.2,1.2-0.4
				c1.9-1.7,4.4-1,6.6-1.4c4.2-0.7,8.4-1.1,12.6-1.7c1.7,0.2,3.3,0,5-0.1c0.7,0,1.4,0,2-0.1c2.8-0.8,5.6-1.6,8.4-2.3
				c0.2-0.2,0.3-0.3,0.6-0.4c4.2-0.6,8.4-1.6,12.5-3c1.8-0.6,3.7-0.1,5.3-1.3c3.3-0.8,6.3-2.2,9.3-3.6c1-1.6,0.6-2.4-1.5-3
				c-2.4-0.6-4.8-1.1-7-2c-1.6-0.7-3.1-1.7-4.9-1.4c-1.6-0.3-3.3-1.1-5-0.3c-0.9,0.4-1.9,0.4-2.9,0.4c-2-0.3-4-0.7-6-1l0.1,0
				c-4.7-0.3-9.3-1.4-14-1.5c-0.7,0-1.5,0.2-2.2-0.2c-4.3-1.7-8.9-1.4-13.4-1.4c-2.5,0-5-0.3-7.5-0.2c-9.1,0.1-18.2,0.2-27.3,0.3
				c-2.5,0.3-5.1,0.1-7.6,0.1c-1.7,0-3.4,0.1-5.1,0.3c-3.4-0.9-6.7-0.1-10.1-0.1c-4.1,0-8.3-0.1-12.4,0.8c-1.3,0.3-4.4-2.6-4.2-3.9
				c0.2-1.2,1.4-1.6,2.5-1.8c3.9-0.5,7.8-0.8,11.6-1.5c6.5-1.2,13.1-1.3,19.7-1.5c2-0.1,4,0,6-0.5c0.7-0.5,1.5-0.5,2.2,0
				c0.1,0,0.3,0,0.4,0c2-0.9,4.1-0.7,6.1-0.5c4,0.4,8.1-0.4,12.1,0.2c3.7,0.1,7.4-0.5,11.1,0c1.8,0.5,3.8-0.6,5.5,0.7
				c3.6,0.2,7.1-0.2,10.7,0.4c0.5,0.1,1-0.1,1.4,0.4c2.4,0.1,4.7,0.4,7.1,0c0.2,0,0.3,0,0.5,0c2.4,0.6,4.8,1,7.2,1.4
				c0.8,0.1,1.5,0.3,2.3,0.2c0.6,0,1.1,0,1.7,0c2.1,0.1,4.2,0.6,6.4,0.5c0.8,0,1.7,0.1,2.2,0.9c0.8,0,1.6-0.1,2.4-0.1
				c1.4,0.4,2.9,0.7,4.2,1.3c1.7,0.1,3.1,1.1,4.7,1.3c0.5,0,1.1,0.1,1.6,0.3c1,0.7,2.1,0.2,3.1,0.4c3.2,1.3,5.8,3.4,7.9,6.1
				c0.7,0.9,0.6,2.1,0.7,3.2c0.6,4.7-0.5,6.7-4.6,8.8c-0.8,1.2-2.1,0.7-3.2,1c-4.3,1.8-8.7,3.1-13.3,3.6c-0.2,0-0.3,0.2-0.5,0.4
				c-0.5,0.9-1.6,0-2.2,0.6l0,0c-1.2,1.6-3.1,0.8-4.6,1.3c-0.5-0.1-0.8,0.3-1.2,0.5c-3.6,0.6-7.1,1.8-10.8,1.7
				c-3.3,0.6-6.6,1.1-9.8,2.2c-4.8,0.8-9.6,1.3-14.5,1.8c-7,0.6-14,1.7-20.9,3.1c-1,0.8-2.2-0.1-3.1,0.5l0,0
				c-2.7,0.7-5.4-0.1-8.1,0.4l0,0c-1.9,1.1-4.1,0.4-6.1,0.7c-3,0.5-6.1,0.6-9.1,1.1c-5.9,1.1-12,0.8-17.9,2.1
				c-1.1,0.2-2.3-0.5-3.5,0.2c-3.1,1.3-6.4,0.8-9.6,1.4c-1.8,0.3-3.6,0-5.3,0.4c-8.6,0.6-17.3,1.4-25.9,2.3
				c-2.6,0.3-5.2,0.2-7.8,0.4c-6.9,0.5-13.9,0.9-20.8,1.3c-3.1,0.1-6.3,0.3-9.4,0.4c-2.8-0.3-5.7,0.6-8.5,0
				C225.8,378.2,220.2,378.3,214.5,378.3z"></path>
      <path fill="#FBF3EF" d="M234.6,368.8c-0.5-0.5-0.9-0.1-1.4,0.2c-0.4,0.2-0.8,0.2-1.2,0.2c-2.9-0.3-5.9,0.6-8.8,0.2
				c-2.3-1-4.8-0.3-7.2-0.4c-8.5-0.2-16.9-0.8-25.3-0.9c-2.4,0.5-4.6,0.2-6.8-0.8c5.6-0.3,11.1,0.3,16.6,0.6c3,0.1,6,0.2,8.9,0.3
				c5.9,0.2,11.8,0,17.7,0.2c2.4,0.1,5.3,0.8,7.7-0.9c0.8-0.6,1.3,0.8,2.2,0.7c1.4-0.1,2.8,0,4.2,0c0.2,0.1,0.2,0.2,0.2,0.3
				c-0.1,0.1-0.1,0.2-0.2,0.2c-0.2,0.1-0.3,0.2-0.5,0.4C238.8,369.4,236.7,369.3,234.6,368.8z"></path>
      <path fill="#C2372D" d="M379.6,357.1c-1.9,1.4-4.2,1.2-6.2,1.1c-2.7-0.1-5.3,0.3-7.9,0.6c-1.4,0.1-2.8-0.3-4.1,0.2
				c-0.6,0.2-1.9-0.9-1.5,0.9c0,0.3-0.4,0.2-0.7,0.1c-1.8-0.5-3.5-0.4-5.2,0.5c-1.6,0.8-3.2,0.1-4.8,0.1c-4.3,0.2-8.5,0.9-12.7,1.6
				c-0.7,0.1-1.5-0.1-2.2-0.1c0.1-0.7,0.5-0.7,1-0.5c1.5-0.3,3.2,0.2,4.3-1.2c2.3-0.4,4.7-0.9,7.1-1c2.9-0.2,5.7-0.9,8.7-0.5
				c0.5,0.1,1.1,0.1,1.5-0.2c1.6-0.9,3.3-1.2,5-1.2c3.2-0.1,6.4-0.6,9.6-0.1c0.9,0.1,1.7,0.1,2.5-0.6c0.6-0.6,1.3-0.6,2,0
				C377.2,357,378.4,357.1,379.6,357.1z"></path>
      <path fill="#FDF7F4" d="M171.5,366.7c-3.4-0.6-6.8-1-10.1-1.9c-4.2-1.1-8.7-1.4-12.4-3.9c1,0,1.8-0.9,3.1,0.6
				c1,1.2,3.7,1.8,5.8,1.4c1.5-0.3,2.6-0.4,3.9,0.9c1.3,1.2,3.3,1.8,5.2,1.3c2.6-0.6,5.1,0.6,7.7,0c0.2,0,0.5,0.5,0.8,0.7
				c0.8,0.6,1.6,0.8,2.3-0.1c0.8-1,1.6-1,2.1,0.2c0.6,1.4,2.2,0.3,2.9,1.3C178.9,367.4,175.2,366.9,171.5,366.7z"></path>
      <path fill="#FBF2EE" d="M428.4,336.7c4.4,0.6,8.3,3,12.7,3.8c2,0.4,2.1,1.8,0.7,3c1-1.7-0.3-2.4-1.5-2.7
				c-2.5-0.4-4.8-1.9-7.5-1.5c-0.2,0-0.5-0.1-0.6-0.2c-1-2.4-2.9-1.4-4.6-1.2c-3.2,0.3-6.5,0-9.6-1c-1.2-0.4-2.6,0.4-3.5-0.8
				c2.1-0.3,4,0.8,6.1,0.6c1.2,0.5,2.3-0.2,3.5,0C425.6,337.4,427,336.5,428.4,336.7z"></path>
      <path fill="#F9EDE8" d="M361.8,357.8c-3,0-5.5,2-8.6,1.7c-3.2-0.3-6.5,0.3-9.8,0.5c-0.8,0-1.6,0.2-2.2,0.9
				c-0.7,0.9-1.1,0.1-1.5-0.4c2.9-0.8,5.8-2,8.9-1.4c0.9,0.2,1.4-1.2,2.4-0.9c1.2,0.4,2.4,0.4,3.6,0c2.3,0.3,4.4-1.1,6.7-0.9
				C361.4,357.4,361.7,357.5,361.8,357.8z"></path>
      <path fill="#F9EDE8" d="M273.4,318.3c2.8-0.7,5.7-0.6,8.6-0.8c6-0.5,12-1,18-0.9c-0.2,0.2-0.5,0.4-0.7,0.4c-4.5-0.4-9,1-13.4,0.9
				C281.6,317.7,277.5,318.6,273.4,318.3z"></path>
      <path fill="#F8ECE6" d="M432.5,347c-1.6,1.6-3.9,1.2-5.8,1.8c-4,1.2-8,2.3-12.2,2.8c-0.2-0.2-0.2-0.4,0-0.6c1,0,2-0.2,2.9-0.7
				c2.6-1.3,5.7-0.7,8.4-1.9C428,347.4,430.3,347.4,432.5,347z"></path>
      <path fill="#F9EEE9" d="M305.8,364.4c-3,0.3-6,0.1-8.9,0.9c-0.6,0.2-1.2,0.5-1.4-0.4c1.1-0.3,1.8-2.1,3.2-0.7
				c1.2-1.4,2.5-0.7,3.9-0.4c1.9,0.4,3.7-0.1,5.4-0.8c0.9-0.4,1.6-0.7,2.4,0.2C308.8,363.9,307.4,364.7,305.8,364.4z"></path>
      <path fill="#C95641" d="M171.5,366.7c3.7-0.2,7.5,0.1,11.2,0.4c0.4,0,0.8,0,1.2,0c2.3,0.3,4.5,0.6,6.8,0.8c0,0.3,1.2,0.7-0.1,0.9
				c-0.7,0.1-1.5,0-2.2,0c-0.7-1.1-1.9-0.2-2.7-0.9c-2,1.2-3.7-0.8-5.7-0.5c-2.5,0.4-5.2-0.2-7.8-0.4
				C172,367.1,171.7,366.8,171.5,366.7z"></path>
      <path fill="#F8EBE5" d="M289.1,366.1c-0.1,0-0.3,0-0.4,0.1c-0.3,0.2-0.6,0.3-0.9,0.3c-1.5,0-3-0.3-4.5,0.1l0,0
				c-1.3,0.4-2.6,0.6-3.9,0.7c-0.8,0.1-1.4,0-1.9-0.7c-0.2-0.4-0.4-1.1,0.2-1c4.8,0.3,9.5-0.7,14.3-0.1c0.1,0,0.1,0.1,0.2,0.1
				c-0.1,0.1-0.3,0.1-0.4,0.2C291,366.4,290,365.6,289.1,366.1z"></path>
      <path fill="#F4E1D9" d="M371.5,325c-6.1,0-12.2,0.1-18.4,0.1c2.5-1.8,5.2-0.8,7.9-0.7c0.8,0,1.6,0.2,2.4,0.2
				c0.7-0.5,1.6,0.1,2.3-0.4c1.9,0.2,3.9-0.1,5.8,0.4c0.1,0.1,0.2,0.2,0.1,0.3C371.6,325,371.6,325,371.5,325z"></path>
      <path fill="#FAF1EC" d="M361.8,357.8c-0.2-0.2-0.4-0.3-0.5-0.5c0.8-0.1,1.8,0.3,2.4-0.7c0.2-0.4,0.6-0.5,1-0.3
				c2,1.1,4.2,0.2,6.3,0.8c1.1,0.3,2.3,0.4,3.2-0.7c0.7-0.8,1.5-0.4,1.9,0.6c-3.4,1.6-7.1-0.1-10.6,1.1
				C364.5,358.4,363,357.8,361.8,357.8z"></path>
      <path fill="#FCF5F1" d="M255.8,311.7c-4.5,1.1-9,1.4-13.5,1.8c-0.3-0.6-1.1-0.3-1.7-0.8c0.5-0.7,1.3-1.1,1.8-0.8
				c2.9,1.8,5.9-0.1,8.8,0C252.6,311.9,254.2,311.6,255.8,311.7z"></path>
      <path fill="#F3DDD3" d="M255.2,368.5c-1-0.1-2.1-0.7-3.1,0c-2.7-0.7-5.3,0.8-8,0.2c-0.3,0-0.5-0.1-0.6-0.3
				c1.5-0.8,3.1-0.8,4.7-0.8c3.8-0.1,7.5,0,11.3,0c0.5,0,0.9,0,1,0.6c-1,0.5-2,0.7-3.1,0.6C256.6,368.6,255.8,369.6,255.2,368.5z"></path>
      <path fill="#F9EDE8" d="M398.4,334.4c5.5-0.3,10.8,0.8,16.2,1.7c-1.7,0.2-3.9,0.8-5.2,0.3c-1.8-0.7-3.6-0.6-5.2-1.2
				C402.3,334.5,400.2,335.5,398.4,334.4z"></path>
      <path fill="#FAF1ED" d="M340.1,369.8c5-1.1,10.1-1.6,15.3-1.8c0,0.5-0.1,1-0.7,0.9C349.8,368.7,345,369.7,340.1,369.8z"></path>
      <path fill="#F9EDE8" d="M303.8,373.8c1.2-1,2.6-0.3,3.9-0.5c3.7-0.5,7.3-0.9,11-1.3c-0.6,1.4-2.1,1.2-3.1,1.2
				C311.7,373.2,307.8,374.3,303.8,373.8z"></path>
      <path fill="#F7E9E3" d="M271.9,309.9c-3.4,0.4-6.7,0.9-10.1,1.3c-1.5,0.2-2.9,0.3-4.4,0.4c1.2-1.5,3.1-1,4.6-1.1
				C265.3,310.2,268.6,309.5,271.9,309.9z"></path>
      <path fill="#DD9781" d="M427.5,329.5c-2.8-0.9-5.7-0.6-8.5-0.9c-0.4-0.3-0.9-0.4-1.3-0.7c-0.1-0.2-0.2-0.4-0.1-0.6
				c1.1-0.9,2.1-0.4,3.1,0.1c1.4,1.2,3.1,0.3,4.6,0.6C426.2,328.3,427.8,327.5,427.5,329.5z"></path>
      <path fill="#F8ECE6" d="M371.5,325c0-0.1,0-0.3,0-0.4c3.9-0.1,7.8-0.9,11.6,0c0.1,0.1,0.1,0.2,0.1,0.3c0,0.1-0.1,0.2-0.1,0.2
				C379.3,325.1,375.4,325,371.5,325z"></path>
      <path fill="#F9EEE9" d="M239.2,313.9c-4.1,1.4-8.5,1.1-12.6,2.3c1.1-1.6,2.6-1.5,4.3-1.5C233.6,314.6,236.4,313.8,239.2,313.9z"></path>
      <path fill="#CA5A44" d="M414.5,351.9c-1.5,1.6-3.9,0.5-5.6,1.7c-0.8,0.6-1.9,0.6-2.9,0.9c-0.5-0.3-1-0.5-0.8-1.2
				c0.3-0.5,1-0.1,1.3-0.5C409.1,352,411.7,351.5,414.5,351.9z"></path>
      <path fill="#F8EBE5" d="M387.5,363.9c4.8-0.9,9.6-1.5,14.5-1.8c-2.4,1.6-5.1,0.6-7.7,1.3C392.1,364.1,389.8,364.2,387.5,363.9z"></path>
      <path fill="#F7E9E3" d="M411.7,359.9c3.6-0.5,7.1-1.7,10.8-1.7c-0.9,1.8-2.8,1-4.1,1.2C416.3,359.8,414,361,411.7,359.9z"></path>
      <path fill="#FCF4F0" d="M219.4,317.4c-2.6,0.9-5.3,1.3-8,1.8c-0.2,0.2-0.4,0.2-0.5-0.1c1-0.6,2-0.8,3.1-0.9
				c0.7-0.1,0.8-0.3,1.2-1.3c0.2-0.5,0.6-0.3,0.9-0.4C217.3,316.3,218.2,317.3,219.4,317.4z"></path>
      <path fill="#D2755E" d="M305.8,364.4c1.6-0.1,2.8-1.5,4.4-1.2c1.2,0.1,2.4,0.2,3.6,0.3c-0.6,1.1-1.5,0.8-2.3,0.5
				c-1.5,0.3-2.8,0.9-4.4,0.8C306.6,364.8,306.1,364.9,305.8,364.4z"></path>
      <path fill="#FCF5F2" d="M420.7,327.4c-1,0.7-2.1-0.8-3.1,0.2c-1.1,0.8-1.9-0.1-2.7-0.6c-0.2-0.2-0.2-0.4,0-0.6
				c1.2,0.2,2.3-0.3,3.5-0.5C419.8,325.6,420.5,326.1,420.7,327.4z"></path>
      <path fill="#C84E3B" d="M337.5,333.6c1.2-1,2.5-0.5,3.8-0.5c3,0.1,5.9,0.1,8.9,0.1c-1.6,0.9-3.3,0.4-5,0.4
				C342.6,333.5,340.1,334,337.5,333.6z"></path>
      <path fill="#C8513D" d="M255.2,368.5c1.8-0.1,3.5-0.2,5.3-0.3c0.1,0.6,0.4,0.7,1,0.7c0.1,0.1,0.1,0.2,0.2,0.3
				c-0.1,0.1-0.1,0.2-0.2,0.3c-1.7,0.1-3.5-0.2-5.3,0.3C255.3,369.9,254.7,369.6,255.2,368.5z"></path>
      <path fill="#F7E9E3" d="M239.9,322.3c3.9-1,7.8-1.5,11.7-1.7C247.7,321.4,243.9,322.6,239.9,322.3z"></path>
      <path fill="#F9EDE7" d="M226.8,324.5c3-1.5,6.4-1.1,9.6-1.7c-0.9,1.2-2.3,0.8-3.5,1C230.9,324.2,228.8,324.3,226.8,324.5z"></path>
      <path fill="#F9EFEA" d="M414.5,351.9c-2.7-0.2-5.3,1-8,0.9c0.8-1.4,2.4-1.2,3.6-1.3c1.5,0,3,0,4.5-0.6c0,0.2,0,0.4,0,0.6
				C414.6,351.7,414.6,351.8,414.5,351.9z"></path>
      <path fill="#EFD3C7" d="M439,332.3c-1.7-0.2-3.4-0.5-4.9-1.3c-0.1-0.2-0.1-0.4,0.1-0.6c0.1,0,0.3,0,0.4,0c0.5,0,1,0.1,1.3-0.5
				c0.9,0,1.9-0.3,2.1,1.2c0.2,1.2,1,0.1,1.5,0.2C439.8,331.9,439.9,332.4,439,332.3z"></path>
      <path fill="#F9EDE7" d="M208.5,328.6c3.5-0.7,6.8-2.2,10.4-2.3c0,0.1,0,0.4-0.1,0.4C215.3,326.8,212.1,328.9,208.5,328.6z"></path>
      <path fill="#CE664F" d="M414.9,328.1c-1.6,0.5-3.1-0.6-4.6-0.7c-0.7,0-1.9-0.1-2.5-1c0.7,0,1.5,0,2.2,0c1.3,0.8,2.7-0.1,3.9,0.3
				C414.5,327,415.1,327.3,414.9,328.1z"></path>
      <path fill="#D57E66" d="M328.5,361.8c-1.3,1-2.8,1.5-4.4,1.2c-0.7,0.1-1.4,0.1-1.9-0.5c2-1.1,4.3-0.3,6.4-1.2
				c0.1,0.1,0.2,0.2,0.1,0.3C328.6,361.8,328.6,361.8,328.5,361.8z"></path>
      <path fill="#D37760" d="M277.6,366.6c1.9,0.8,3.9-0.3,5.8,0c-1.7,1.3-3.8,1.3-5.8,1.3c-0.3-0.3-0.7-0.5-0.9-0.9
				C276.9,366.9,277.3,366.8,277.6,366.6z"></path>
      <path fill="#E3AC99" d="M434.2,330.4c0,0.2-0.1,0.4-0.1,0.6c-1.6-0.2-3-0.6-4.3-1.6C431.5,328.8,433.1,328.8,434.2,330.4z"></path>
      <path fill="#CD614B" d="M321.9,363.6c-1.1,0.1-2.3-0.4-3.4,0.6c-0.7,0.6-1.5,0-2-0.7c0-1.2,0.8-0.7,1.4-0.7
				c0.7,0.2,1.5,0.2,2.3,0c0.4,0,0.9,0,1.3-0.1C321.8,362.9,322.2,363,321.9,363.6z"></path>
      <path fill="#D06C55" d="M273.2,367.3c-0.3,2.1-2.2,0.9-3.1,1.5c-0.4-0.4-1.1-0.3-1.5-0.8c-0.1-0.2-0.1-0.4,0.1-0.5
				C270.1,367.6,271.6,366.9,273.2,367.3z"></path>
      <path fill="#CC614B" d="M407.3,326.3c-2.4,0.8-4.7,0.8-7.1,0C402.6,325.6,405,326,407.3,326.3z"></path>
      <path fill="#F9EDE7" d="M186.2,334.8c1.9-1.3,4.3-1.3,6.3-2.1c-0.7,1.2-1.3,2.1-3.1,1.5c-0.8-0.3-2.1,0.8-3.2,1.2
				C186,335.2,186,335,186.2,334.8z"></path>
      <path fill="#F9EDE7" d="M218.9,326.3c2.4-1.3,5.1-1.4,7.7-1.7C224.1,325.5,221.5,326.3,218.9,326.3z"></path>
      <path fill="#F9EEE9" d="M226.6,316.1c-2.4,0.4-4.8,0.9-7.2,1.3C221.6,315.7,224.1,316.1,226.6,316.1z"></path>
      <path fill="#F7EAE4" d="M209.1,319.7c-2.4,0.6-4.8,1.2-7.2,1.9C204.1,320,206.6,319.7,209.1,319.7z"></path>
      <path fill="#D7856D" d="M328.5,361.8c0-0.2,0-0.3,0.1-0.5c1.3,0.6,2.7-1.2,4,0c0.1,0.1,0.2,0.2,0.1,0.3c-0.1,0.1-0.1,0.1-0.2,0.1
				c-1,0-1.8,0.5-2.7,0.8C329.4,362.7,328.3,363.3,328.5,361.8z"></path>
      <path fill="#C95540" d="M276.6,367.1c0.4,0.2,1.5-0.3,0.9,0.9c-1.4,0.6-2.6,0-3.7-0.9c0.1-0.7,0.4-0.8,0.9-0.3
				C275.4,366.9,276,367,276.6,367.1z"></path>
      <path fill="#C95440" d="M403.8,354.5c-1.7,0-3.4,0.1-5.1-0.4c1.1-1,2.4-0.3,3.5-0.5c0.7-0.1,1.4-0.5,1.9,0.3
				C404.4,354.1,404,354.4,403.8,354.5z"></path>
      <path fill="#F6E7DF" d="M355.3,367.9c2.7-0.7,5.4-0.1,8.1-0.4C360.8,368.6,358.1,367.9,355.3,367.9z"></path>
      <path fill="#F4E2D9" d="M194,323.7c-1.9,0.9-3.9,1.4-5.9,1.7C189.8,324.2,191.8,323.8,194,323.7z"></path>
      <path fill="#FBF2ED" d="M383.2,325.1c0-0.2,0-0.3,0-0.5c1.6,0.4,3.6-0.9,4.9,0.9C386.5,324.8,384.8,325.6,383.2,325.1z"></path>
      <path fill="#F7EAE3" d="M161.6,343.8c1.8-0.6,3.4-1.8,5.4-1.9C165.3,342.8,163.8,344.3,161.6,343.8z"></path>
      <path fill="#D57D65" d="M443.5,332.7c-1,1.2-2.1,0.7-3.1,0c0.1-0.4-0.4-1.1,0.5-1C441.6,332.5,442.9,331.7,443.5,332.7z"></path>
      <path fill="#D06C55" d="M311.5,364c0.8-0.2,1.7,0.3,2.3-0.5c0.6-0.2,1.2-0.5,1.8,0C314.3,364.7,313,364.9,311.5,364z"></path>
      <path fill="#D88770" d="M295.4,364.9c0.4,0.6,0.9,0.3,1.4,0.4c-1.3,0.7-2.7,0.6-4,0.4C293.8,365.8,294.1,364,295.4,364.9z"></path>
      <path fill="#D1725A" d="M403.8,354.5c0.3-1.6-1.1-0.5-1.5-0.9c0.9-0.8,1.9-0.1,2.8-0.3c0.3,0.4,0.5,0.8,0.8,1.2
				C405.2,354.5,404.5,354.5,403.8,354.5z"></path>
      <path fill="#DE9C87" d="M266,367.6c0.6,1.7-0.9,1.2-1.6,1.6c-0.6,0-0.7-0.5-1-0.8c-0.1-0.2-0.1-0.3-0.1-0.5
				C264.1,367.1,265.1,368.5,266,367.6z"></path>
      <path fill="#F5E3DB" d="M154,347.8c1.5-0.3,2.5-1.8,4.1-1.8c-1.1,1.3-2.5,1.9-4.1,2.2C153.8,348.1,153.8,347.9,154,347.8z"></path>
      <path fill="#E5B2A0" d="M414.1,326.9c-1.3-0.8-2.9,1-4.1-0.5c1.6,0,3.3,0,4.9,0c0,0.1,0,0.3,0,0.4
				C414.7,327.1,414.4,327.1,414.1,326.9z"></path>
      <path fill="#F9EEE9" d="M423.8,357.7c1.5-0.5,3.2-0.5,4.6-1.3C427.3,358.4,425.4,357.6,423.8,357.7z"></path>
      <path fill="#D3775F" d="M332.6,361.7c0-0.1,0-0.3,0-0.4c1-0.3,2-1.1,2.8,0.3c-0.3,0.2-0.7,0.3-1,0.5
				C333.7,362.3,333.1,362.1,332.6,361.7z"></path>
      <path fill="#FBF3EF" d="M136.6,350.1c-0.4,1.3-1.1,2.5-1.8,3.6C134.8,352.2,135.3,351,136.6,350.1z"></path>
      <path fill="#F7EAE3" d="M166.9,342c1-0.6,1.8-1.6,3.2-1.3C169.3,341.6,168.3,342.3,166.9,342z"></path>
      <path fill="#F6E5DE" d="M444.4,351.8c1-0.6,2.3-0.3,3.2-1C446.9,352.6,445.7,352.2,444.4,351.8z"></path>
      <path fill="#CD634C" d="M321.9,363.6c-0.1-0.3-0.3-0.6-0.4-0.9c0.3,0,0.5-0.1,0.8-0.1c0.6,0.2,1.3,0.3,1.9,0.5
				C323.5,363.8,322.6,363.4,321.9,363.6z"></path>
      <path fill="#D6826B" d="M154,347.8c0,0.1,0,0.3-0.1,0.4c-0.3,0.1-0.5,0.3-0.8,0.4c-0.5,0.6-1,1.2-1.8,1.2c-0.2,0-0.4-0.1-0.4-0.3
				C151.6,348.4,152.6,347.8,154,347.8z"></path>
      <path fill="#FBF3EF" d="M354.5,358.2c-1.2,1-2.4,0.5-3.6,0C352.2,358.2,353.3,358.2,354.5,358.2z"></path>
      <path fill="#F7E9E2" d="M173.9,330c-1,0.6-2.1,1.1-3.3,1.2C171.4,330.1,172.6,330,173.9,330z"></path>
      <path fill="#F5E3DB" d="M186.2,334.8c0,0.2,0,0.4,0,0.5c-0.9,0.5-1.9,0.5-2.8,0.4C184.2,334.8,185.3,335.1,186.2,334.8z"></path>
      <path fill="#E3AD9A" d="M440.9,331.7c-0.4,0.2,0,0.9-0.5,1c-0.5-0.1-1,0-1.4-0.5c0.3-0.2,0.6-0.5,0.6-0.9
				C440.1,331.2,440.6,331.2,440.9,331.7z"></path>
      <path fill="#F8EAE4" d="M154.2,337.6c-0.7,0.6-1.3,1.3-2.4,1.2C152.3,338,153,337.4,154.2,337.6z"></path>
      <path fill="#D6826B" d="M148.7,351.5c0.4-1,1-1.8,2.1-1.9c0.1,0.1,0.2,0.2,0.2,0.2c0.1,0.1,0,0.2-0.1,0.3
				C149.9,350.1,149.7,351.4,148.7,351.5z"></path>
      <path fill="#F4E1D9" d="M352.7,325.1c-0.7,0-1.5,0-2.2,0C351.3,323.8,352,323.9,352.7,325.1z"></path>
      <path fill="#D2755D" d="M261.4,368.8c0.2-1.1,1-0.9,1.8-1c0,0.1,0,0.2,0,0.3c-0.1,1.3-1,0.9-1.8,0.9
				C261.4,369,261.4,368.9,261.4,368.8z"></path>
      <path fill="#D3775F" d="M436,330c0.1,0.3,0.2,0.5,0.3,0.8c-0.6,0.1-1.2,0.2-1.6-0.3C434.9,329.8,435.5,330,436,330z"></path>
      <path fill="#F5E3DB" d="M151,350.1c0-0.1,0-0.2,0.1-0.3c0.7-0.4,1.4-0.8,2-1.2C152.8,349.7,152,350.1,151,350.1z"></path>
      <path fill="#F6E7DF" d="M363.4,367.5c1-0.5,2.1-0.6,3.1-0.5C365.7,368,364.5,367.4,363.4,367.5z"></path>
      <path fill="#F3DDD3" d="M241.3,368.5c0-0.2,0-0.3,0-0.5c0.7,0,1.4,0.6,2.2,0.3c0.1,0.1,0.1,0.1,0.2,0.2c-0.3,0.9-0.9,0.7-1.4,0.3
				C241.9,368.7,241.6,368.6,241.3,368.5z"></path>
      <path fill="#DE9C87" d="M267.7,367.6c-0.6,0-1.2,0-1.8,0c0.8-0.8,1.7-0.7,2.6-0.2c0,0.1,0.1,0.2,0.1,0.3
				C268.3,367.8,268,367.8,267.7,367.6z"></path>
      <path fill="#E2AA97" d="M325.5,325.9c0.2-0.3,0.5-0.4,0.7-0.3c0.1,0.1,0.3,0.3,0.3,0.4c-0.1,0.3-0.4,0.4-0.7,0.3
				C325.7,326.2,325.6,326,325.5,325.9z"></path>
      <path fill="#F8EBE5" d="M274.8,366.8c-0.3,0-0.7-0.2-0.9,0.3c-0.3,0-0.5,0-0.8,0.1C273.6,366.4,274,365.7,274.8,366.8z"></path>
      <path fill="#D8876F" d="M320.1,362.7c-0.8,0.5-1.5,0.6-2.3,0C318.6,362.7,319.3,362.7,320.1,362.7z"></path>
      <path fill="#F9EEE9" d="M428.4,356.4c0.6-0.6,1.5-0.3,2.2-0.6C430.1,356.8,429.1,356.3,428.4,356.4z"></path>
      <path fill="#F8ECE6" d="M365.7,324.1c-0.6,0.7-1.5,0.3-2.3,0.4C364.1,323.9,365,324.2,365.7,324.1z"></path>
      <path fill="#F7EAE4" d="M210.8,319.1c0.2,0,0.4,0.1,0.5,0.1c-0.7,0.5-1.5,0.6-2.3,0.5C209.5,319,210.3,319.3,210.8,319.1z"></path>
      <path fill="#F8EBE5" d="M150.9,372c2.4,0.6,4.8,1.2,7.2,1.8C155.6,373.9,153.1,373.4,150.9,372z"></path>
      <path fill="#EECFC2" d="M206.7,378.2c1.4-0.2,2.8-0.2,4.2,0.5c-0.8,0-1.5,0.1-2.3,0.1C208,378.6,207.4,378.4,206.7,378.2z"></path>
      <path fill="#CD634C" d="M242.2,368.9c0.5-0.1,1,0.2,1.4-0.3c2.8,0,5.6-1.4,8.4-0.1c-0.9,0.2-1.7,1.2-2.8,0.1
				c-0.3-0.3-0.9,0.1-1,0.6c-0.2,1.1-1,0.5-1.6,0.6c-0.4-0.9-1.4-0.3-1.9-0.8C243.9,368.8,243,370.7,242.2,368.9z"></path>
      <path fill="#C2352C" d="M223.3,369.3c3-0.7,6-0.5,9.1-0.4c0.1,0.1,0.1,0.2,0.1,0.3c0,0.1-0.1,0.1-0.1,0.1
				c-2.2,0.2-4.4-0.4-6.4,1.2C225.3,371,224.3,369.5,223.3,369.3z"></path>
      <path fill="#CB5C46" d="M428.4,336.7c-1.3,0.8-2.7,1.5-4.2,0.5c0.8-0.7,1.6-0.2,2.3-0.2c-0.9-0.6-2.3,0.5-3.1-0.8
				C425.1,335.3,426.8,335.9,428.4,336.7z"></path>
      <path fill="#C44032" d="M234.6,368.8c2.1,0,4.1,0,6.2,0c0.1,2.2-2.1,0.2-2.5,1.4C237.6,368.5,235.5,370.1,234.6,368.8z"></path>
      <path fill="#C33D30" d="M414.1,326.9c0.3,0,0.6-0.1,0.9-0.1c0.9,0.4,1.9,0.2,2.7,0.8c0,0-0.1,0.1-0.1,0.1l0,0.2
				c0.3,0.5-0.2,0.5-0.4,0.8c-0.8,0.1-1.6,0-2.3-0.5C414.7,327.7,414,327.6,414.1,326.9z"></path>
      <path fill="#C8523E" d="M423.4,336.2c1,0.7,2.2,0,3.4,0.8c-1,0.1-1.8,0.2-2.6,0.2c-1.2,0-2.4,0.2-3.5-0.5
				C421.6,336.6,422.5,336.4,423.4,336.2z"></path>
      <path fill="#D1735C" d="M283.4,366.6c1.5-0.1,2.9-1.3,4.6-0.5c-0.3,0.6-1.1,0.4-1.4,0.9C285.4,367.6,284.5,366.4,283.4,366.6z"></path>
      <path fill="#C64434" d="M261.5,369c0.7-0.2,1.4-0.1,1.8-0.9c1.1-0.4,0.8,0.6,1.1,1.1c-0.9,0.9-1.9,0-2.9,0.1
				C261.4,369.2,261.4,369.1,261.5,369z"></path>
      <path fill="#C74D3A" d="M185.8,368c0.8,0,1.6,0,2.3,0c0.7,0,0.5,0.5,0.4,0.9C187.6,368.4,186.4,369.3,185.8,368z"></path>
      <path fill="#C54635" d="M267.7,367.6c0.3,0.1,0.6,0.1,0.9,0.2c0.4,0.4,1.3,0.2,1.4,1.1C268.9,369.1,268.1,368.7,267.7,367.6z"></path>
      <path fill="#C8523E" d="M286.5,367.1c0-1,0.8-0.8,1.4-0.9c0.3,0,0.6,0.1,0.8,0.1C288.4,367.6,287.3,366.9,286.5,367.1z"></path>
      <path fill="#C95440" d="M244.8,369c0.7,0,1.7-0.4,1.9,0.8C246.1,369.4,244.7,370.9,244.8,369z"></path>
      <path fill="#D0725A" d="M289.1,366.1c0.8-0.7,1.8-0.4,2.7-0.4C291.2,367.5,290,365.5,289.1,366.1z"></path>
      <path fill="#CD634C" d="M232.3,369.4c0-0.2,0-0.3,0-0.5c0.3,0,0.6,0,0.9,0.1c-0.2,0.5,0.8,0.9,0.3,1.2
				C233.1,370.5,232.6,369.9,232.3,369.4z"></path>
      <path fill="#C2322B" d="M229.8,369.8c0.2,0.1,0.5,0.2,0.6,0.3c0.1,0.3-0.1,0.5-0.4,0.5c-0.2,0-0.4-0.2-0.4-0.3
				C229.4,370.2,229.6,370,229.8,369.8z"></path>
      <path fill="#D1715A" d="M417.2,328.6c0.1-0.3,0.2-0.5,0.4-0.8c0.7-0.2,1.2,0.2,1.5,0.8C418.4,328.6,417.8,328.6,417.2,328.6z"></path>
      <path fill="#C12E29" d="M186,332.6c-0.2-0.2-0.3-0.3-0.4-0.4c0.1-0.1,0.2-0.3,0.4-0.4c0.1,0,0.3,0.1,0.4,0.2
				C186.3,332.2,186.1,332.4,186,332.6z"></path>
    </g>
  </g>
</svg>